<svg  id="social" data-name="socialslist" xmlns="http://www.w3.org/2000/svg" viewBox="0 0 16.7 16.7">
  
  <title>Social Networks Steep</title>
  <symbol id="fb" >
    <title>Facebook</title>
  <path d="M14.4.1H2.5A2.4,2.4,0,0,0,.1,2.5V14.4a2.4,2.4,0,0,0,2.4,2.4H14.4a2.4,2.4,0,0,0,2.4-2.4V2.5A2.4,2.4,0,0,0,14.4.1ZM6,13.3H4V6.5H6ZM6,5.5H4V3.6H6Zm6.9,7.8h-2V9.4a.9.9,0,0,0-1-.9,1,1,0,0,0-1,.9v3.9H7V6.5H8.9v.4a4.2,4.2,0,0,1,1.5-.4,2.6,2.6,0,0,1,2.5,2.6Z" transform="translate(-0.1 -0.1)"/>
  </symbol>

  <symbol id="pin" >
    <title>Pinterest</title>
  <path d="M6.3,15.3l-2.2-.2a10.6,10.6,0,0,1-3-1.1l-1-.5,1.1-.4a26.4,26.4,0,0,0,2.7-1A4.2,4.2,0,0,1,2,9.9l-.2-.7H2l-.5-.6A3.9,3.9,0,0,1,.9,6.5V5.9h.4A3,3,0,0,1,1,5a4,4,0,0,1,.4-2.6l.4-.6.4.6A8.8,8.8,0,0,0,7.7,5.5a3.5,3.5,0,0,1,.2-1.8A3.3,3.3,0,0,1,9.3,2.2a4.4,4.4,0,0,1,2.3-.6,3.7,3.7,0,0,1,2.2,1l.9-.3.6-.3,1-.3-.6,1.8h1.1l-.6.9h-.1c0,.1-.1.2-.9,1.3a1.7,1.7,0,0,0-.3,1,9.5,9.5,0,0,1-.5,3.9,7.1,7.1,0,0,1-1.8,2.7A8.3,8.3,0,0,1,8.7,15,8.8,8.8,0,0,1,6.3,15.3Z" transform="translate(-0.1 -0.1)"/>
  </symbol>

  <symbol id="twi" >
    <title>Twitter</title>
  <path d="M4.1,9.2l.2-.9a5.7,5.7,0,0,1-.4-3.4C4.2,2.9,6.3,2,8.2,2h0c2.4,0,4.2,1.3,4.2,3.6s-1.1,4.2-3,4.2h0a2.6,2.6,0,0,1-1.7-.6A1.6,1.6,0,0,1,7.5,8a10.1,10.1,0,0,0,.8-3.1A1.1,1.1,0,0,0,7.1,3.6,1.6,1.6,0,0,0,5.5,4.8a3.3,3.3,0,0,0,0,2.4,17.1,17.1,0,0,1-.7,3.2c-.5,1.7-1.3,4-1.1,5.2v1.2l.8-1c1-1.3,2-4.7,2.3-5.5a4,4,0,0,0,2.7,1.1,5.7,5.7,0,0,0,5.2-5.9C14.7,2.6,12.5.1,8.6.1h0c-3.7,0-5.8,2-6.4,4.5S2.8,8.7,4.1,9.2Z" transform="translate(-0.1 -0.1)"/>
  </symbol>

  <symbol id="link" >
    <title>Linkedin</title>
  <path d="M14.4.1H2.5A2.4,2.4,0,0,0,.1,2.5V14.4a2.4,2.4,0,0,0,2.4,2.4h5V10.9h-2V8h2V6a3,3,0,0,1,2.9-3h3V6h-3V8h3l-.5,2.9H10.4v5.9h4a2.4,2.4,0,0,0,2.4-2.4V2.5A2.4,2.4,0,0,0,14.4.1Z" transform="translate(-0.1 -0.1)"/>
  </symbol>
</svg>
