<svg xmlns="http://www.w3.org/2000/svg" viewBox="0 0 78.5 110.4">
  <g>
    <path d="M29.2,54.3c-3.5-1.4-6.6-2.6-9-3.8a10.9,10.9,0,0,0,.3-2.6A10.3,10.3,0,1,0,10.3,58.2a10.1,10.1,0,0,0,7.9-3.8c2.6,1.2,5.8,2.5,9.4,3.9C39.4,63,55.5,69.4,56.2,79.9c.5,8.8-5.6,13.2-11.6,15.4a10.3,10.3,0,1,0,1.2,4.8v-.7c10.1-3.5,15.3-10.5,14.7-19.7C59.6,66.4,42,59.4,29.2,54.3Zm-18.9-.9a5.5,5.5,0,1,1,0-10.9,5.5,5.5,0,0,1,5.4,5.4,4.8,4.8,0,0,1-.6,2.4A5.4,5.4,0,0,1,10.3,53.4Zm25.3,52.1a5.4,5.4,0,0,1,0-10.8,5.4,5.4,0,0,1,5.2,4,5.9,5.9,0,0,1,.2,1.4A5.4,5.4,0,0,1,35.6,105.5Z"/>
    <path d="M68.3,52.2a10.4,10.4,0,0,0-8,3.8c-2.5-1.2-5.7-2.5-9.3-3.9C39.2,47.4,23,41,22.4,30.4c-.5-6.8,3.1-11.8,10.5-14.9a10.1,10.1,0,0,0,8.8,5A10.3,10.3,0,1,0,31.4,10.3a4.9,4.9,0,0,0,.1,1.2c-9.3,3.7-14,10.4-13.4,19.2C18.9,44,36.5,51,49.4,56.1a94.2,94.2,0,0,1,9,3.8,7.3,7.3,0,0,0-.4,2.5A10.3,10.3,0,1,0,68.3,52.2ZM41.7,4.8a5.5,5.5,0,0,1,5.4,5.5,5.5,5.5,0,0,1-10.9,0A5.5,5.5,0,0,1,41.7,4.8ZM68.3,67.9a5.5,5.5,0,1,1,5.4-5.5A5.5,5.5,0,0,1,68.3,67.9Z"/>
  </g>
</svg>
