<svg width="20px" height="9px" viewBox="0 0 20 9" version="1.1" xmlns="http://www.w3.org/2000/svg" xmlns:xlink="http://www.w3.org/1999/xlink">
    <desc>Created with Sketch.</desc>
    <g id="Symbols" stroke="none" stroke-width="1" fill="none" fill-rule="evenodd">
        <g id="slider-/-expertises" transform="translate(-1378.000000, -522.000000)" fill="#ffffff" fill-rule="nonzero">
            <g id="Group" transform="translate(1378.000000, 494.000000)">
                <path d="M19.2857373,32.2491788 C19.2857373,32.3496253 19.2410944,32.4500719 19.17413,32.5170362 L14.8884106,36.4679338 C14.7768033,36.5683803 14.6317139,36.5907018 14.4977851,36.5348982 C14.3750171,36.4790945 14.2857313,36.3563265 14.2857313,36.2112371 L14.2857313,33.7112341 L0.357143283,33.7112341 C0.156250186,33.7112341 0,33.5549839 0,33.3540908 L0,31.2112311 C0,31.010338 0.156250186,30.8540878 0.357143283,30.8540878 L14.2857313,30.8540878 L14.2857313,28.3540848 C14.2857313,28.2089954 14.3638564,28.0862274 14.4977851,28.0304237 C14.6317139,27.9746201 14.7768033,27.9969415 14.8884106,28.0862274 L19.17413,31.992482 C19.2410944,32.0594464 19.2857373,32.1487322 19.2857373,32.2491788 Z" id=""></path>
            </g>
        </g>
    </g>
</svg>